<svg xmlns="http://www.w3.org/2000/svg" viewBox="0 0 389 225" width="389" height="225" xmlns:xlink="http://www.w3.org/1999/xlink">
  <defs>
    <path id="valuable-a" d="M 55.6079 91.036 L 55.6079 91.1024 C 30.0131 91.1024 10 63.9608 10 40.8221 C 10 17.7807 30.4244 2.88039 55.2929 15.9107 C 80.2154 2.76998 100.705 17.6811 100.705 40.7594 C 100.705 63.744 80.9578 90.6783 55.6079 91.036 Z"/>
  </defs>
  <g fill="none" fill-rule="evenodd" transform="translate(-12)">
    <ellipse opacity="0.288" fill="#f3c5c5" cx="236" cy="219" rx="20" ry="6"/>
    <g transform="translate(177 127)">
      <mask id="valuable-b" fill="#fff">
        <use xlink:href="#valuable-a"/>
      </mask>
      <use fill="#e97d82" transform="rotate(-16 55.353 51.051)" xlink:href="#valuable-a"/>
      <path opacity="0.198" mask="url(&quot;#valuable-b&quot;)" stroke="#51565a" stroke-linecap="round" stroke-linejoin="round" stroke-width="10" d="M -134.725 90.2651 L 219.37 -67.4737"/>
    </g>
    <path stroke="#b8bfc5" stroke-linecap="round" stroke-linejoin="round" stroke-width="10" transform="translate(41 54)" d="M 0.274996 158.265 L 354.37 0.526285"/>
    <g transform="rotate(-21 419.515 -495.122)">
      <path fill="#9ef1b6" transform="rotate(-145 17.92 19.916)" d="M 26.7377 19.916 C 26.7377 27.3601 19.684 37.5474 17.9206 37.5474 C 16.1571 37.5474 9.10344 27.3601 9.10344 19.916 C 9.10344 12.4718 16.1571 2.28452 17.9206 2.28452 C 19.684 2.28452 26.7377 12.4718 26.7377 19.916 Z"/>
      <path stroke="#aa797c" stroke-linecap="round" stroke-linejoin="round" stroke-width="5.4" d="M 3.87611 3.21285 C 7.63422 8.03213 9.51327 13.1191 9.51327 18.4739 C 9.51327 23.8286 8.70796 29.1834 7.09735 34.5382"/>
    </g>
    <g transform="rotate(-24 238.072 -583.713)">
      <path fill="#5fcf80" d="M 2.8 0 L 111.2 0 C 112.746 -2.84069e-016 114 1.2536 114 2.8 L 114 56.2 C 114 57.7464 112.746 59 111.2 59 L 2.8 59 C 1.2536 59 8.30661e-015 57.7464 3.9968e-015 56.2 L 0 2.8 C -1.89379e-016 1.2536 1.2536 -2.38047e-015 2.8 -2.66454e-015 Z"/>
      <rect opacity="0.261" fill="#c6ccd2" stroke="#3f4850" stroke-linecap="square" stroke-width="2.1" x="5.595" y="5.553" width="102.81" height="47.894" rx="2.8"/>
      <ellipse opacity="0.139" fill="#2d3339" cx="57.699" cy="30.194" rx="19.233" ry="19.088"/>
      <path fill="#fff" d="M 56.7023 18.3092 C 56.7023 17.8012 57.154 17.3529 57.6659 17.3529 C 58.1777 17.3529 58.6294 17.8012 58.6294 18.3092 L 58.6294 19.2954 C 60.6167 19.5046 62.1824 20.162 63.7181 21.2079 C 64.0493 21.447 64.3203 21.7458 64.3203 22.1941 C 64.3203 22.8217 63.8084 23.2699 63.1761 23.2699 C 62.9653 23.2699 62.7545 23.24 62.5137 23.0607 C 61.1888 22.1045 59.894 21.5367 58.5391 21.3275 L 58.5391 28.7088 C 63.1159 29.7248 65.0429 31.4879 65.0429 34.5062 C 65.0429 37.7038 62.3932 39.9152 58.6294 40.1542 L 58.6294 42.276 C 58.6294 42.784 58.1777 43.2323 57.6659 43.2323 C 57.154 43.2323 56.7023 42.784 56.7023 42.276 L 56.7023 40.0945 C 54.2332 39.8853 52.1255 38.9589 50.1683 37.4348 C 49.8371 37.1957 49.6564 36.8969 49.6564 36.4785 C 49.6564 35.8809 50.1683 35.4027 50.7705 35.4027 C 51.0716 35.4027 51.3125 35.5223 51.4631 35.6418 C 53.0589 36.9866 54.715 37.8532 56.7926 38.0923 L 56.7926 30.5914 C 52.3363 29.5455 50.3791 27.9019 50.3791 24.7641 C 50.3791 21.6861 52.9987 19.4149 56.7023 19.2356 L 56.7023 18.3092 Z M 62.7244 34.6556 C 62.7244 32.8925 61.8211 31.8167 58.5391 30.9799 L 58.5391 38.1819 C 61.1286 38.0325 62.7244 36.6279 62.7244 34.6556 Z M 52.6976 24.6147 C 52.6976 26.3479 53.5106 27.4238 56.7926 28.2904 L 56.7926 21.2378 C 54.2332 21.3574 52.6976 22.7918 52.6976 24.6147 Z"/>
    </g>
    <g transform="rotate(-24 251.558 53.47)">
      <rect fill="#f9845b" y="81" width="182" height="27" rx="4"/>
      <rect fill="#53bbb4" x="17" y="54" width="182" height="27" rx="4"/>
      <rect fill="#838cc7" y="27" width="182" height="27" rx="4"/>
      <rect fill="#39add1" x="17" width="182" height="27" rx="4"/>
      <rect opacity="0.254" fill="#fff" x="30" width="8" height="27"/>
      <rect opacity="0.254" fill="#fff" x="13" y="27" width="8" height="27"/>
      <rect opacity="0.254" fill="#fff" x="30" y="54" width="8" height="27"/>
      <rect opacity="0.254" fill="#fff" x="13" y="81" width="8" height="27"/>
      <rect opacity="0.254" fill="#fff" x="178" width="8" height="27"/>
      <rect opacity="0.254" fill="#fff" x="161" y="27" width="8" height="27"/>
      <rect opacity="0.254" fill="#fff" x="178" y="54" width="8" height="27"/>
      <rect opacity="0.254" fill="#fff" x="161" y="81" width="8" height="27"/>
      <circle opacity="0.25" fill="#fff" cx="57.5" cy="13.5" r="6.5"/>
      <circle opacity="0.25" fill="#fff" cx="57.5" cy="67.5" r="6.5"/>
      <rect opacity="0.25" fill="#fff" x="34" y="36" width="43" height="9" rx="4.5"/>
      <rect opacity="0.25" fill="#fff" x="59" y="90" width="65" height="9" rx="4.5"/>
    </g>
  </g>
</svg>