<svg xmlns="http://www.w3.org/2000/svg" viewBox="0 0 274 208" width="274" height="208" xmlns:xlink="http://www.w3.org/1999/xlink">
  <defs>
    <path id="coder-a" d="M 96.1032 5.23057 C 100.108 67.1114 97.7717 103.708 89.0957 115.019 C 85.0222 120.33 78.0839 125 66.071 125 C 66.071 125 44.0473 125 0 125 L 17.0183 97.0538 C 17.1718 86.7662 24.1794 76.7854 38.0409 67.1114 C 50.4128 58.477 52 55 53 52 C 53.7277 49.817 52 48 54.0602 42.1633 C 61.0677 28.1902 88.0946 22.1979 82.0882 2.23633 C 80.9535 -1.53464 85.6252 -0.536563 96.1032 5.23057 Z"/>
    <path id="coder-c" d="M 4 20.2353 C -1.83934 20.2353 1 3.23529 11 1.23529 C 21 -0.764706 36 4 55 12.2353 C 56 14 55 20.2353 52 20.2353 C 49 20.2353 6 20.2353 4 20.2353 Z"/>
    <path id="coder-e" d="M 33.9865 80.7614 C 55.4865 80.7614 66.9594 61.3493 66.9594 39.5341 C 66.9594 17.7188 51.9609 0.0340722 33.4594 0.0340722 C 14.9579 0.0340722 0.959394 17.7188 0.959394 39.5341 C 0.959394 61.3493 12.4865 80.7614 33.9865 80.7614 Z"/>
    <ellipse id="coder-g" cx="4.072" cy="5.749" rx="4" ry="5.5"/>
  </defs>
  <g fill="none" fill-rule="evenodd" transform="matrix(-1, 0, 0, 1, 275, -10)">
    <rect fill="#d8dde2" transform="matrix(-1, 0, 0, 1, 316, 0)" x="83" y="214" width="150" height="3" rx="1.5"/>
    <path fill="#ae8d68" d="M 220.546 121 C 197.091 142.333 184.697 153 183.364 153 C 181.364 153 158 139 155 139 C 152 139 152 140 151 140 C 145.255 140 149 146 153 147 C 157 148 181 162 186 161 C 189.333 160.333 200.849 151 220.546 133 L 220.546 121 Z"/>
    <g transform="translate(145 92)">
      <mask id="coder-b" fill="#fff">
        <use xlink:href="#coder-a"/>
      </mask>
      <use fill="#39add1" xlink:href="#coder-a"/>
      <path fill="#c69f74" mask="url(&quot;#coder-b&quot;)" d="M 77 7 C 77 7 97 2 98 2 C 98.6667 2 98.6667 9 98 23 C 92.6667 22.3333 88 22.3333 84 23 C 80 23.6667 73.3333 26 64 30 C 72.6667 14.6667 77 7 77 7 Z"/>
      <path opacity="0.416" fill="#8e7558" mask="url(&quot;#coder-b&quot;)" d="M 72 4 L 97 -2 L 97 9 C 85 13.6667 76.6667 15 72 13 C 69.3379 11.8591 69.3379 8.85911 72 4 Z"/>
    </g>
    <path fill="#435e71" d="M 211 217 C 157.915 164.333 117.915 138 91 138 C 72.3333 138 53.6667 162.667 35 212 L 45 212 C 65 196.667 77.3333 185.167 82 177.5 C 86.0425 170.859 89 166 91 166 C 97 166 125 217 146 217 C 179.222 217 200.889 217 211 217 Z"/>
    <g transform="translate(0 197)">
      <mask id="coder-d" fill="#fff">
        <use xlink:href="#coder-c"/>
      </mask>
      <use fill="#e4e8ea" xlink:href="#coder-c"/>
      <rect fill="#838cc7" mask="url(&quot;#coder-d&quot;)" x="1" y="17" width="54" height="3"/>
      <circle opacity="0.832" fill="#c6ccd2" mask="url(&quot;#coder-d&quot;)" cx="20.5" cy="4.5" r="1.5"/>
      <circle opacity="0.832" fill="#c6ccd2" mask="url(&quot;#coder-d&quot;)" cx="25.5" cy="5.5" r="1.5"/>
      <circle opacity="0.832" fill="#c6ccd2" mask="url(&quot;#coder-d&quot;)" cx="30.5" cy="6.5" r="1.5"/>
    </g>
    <g transform="rotate(-14 332.908 -313.006)">
      <polygon fill="#9ca2a6" points="5.528,0.1 6.498,0.342 6.545,74.558 5.333,75.286"/>
      <path fill="#797f84" d="M 6 -2.84217e-014 L 6 76 C 6 77.6569 4.65685 79 3 79 L 3 79 C 1.34315 79 -2.41183e-016 77.6569 -4.44089e-016 76 L 0 6 C -4.05812e-016 2.68629 2.68629 -2.7813e-014 6 -2.84217e-014 Z"/>
      <path fill="#9ca2a6" d="M 6 -7.10543e-014 L 7 -7.10543e-014 C 7.55228 -7.11557e-014 8 0.447715 8 1 L 8 78 C 8 78.5523 7.55228 79 7 79 L 7 79 C 6.44772 79 6 78.5523 6 78 L 6 -7.10543e-014 Z"/>
    </g>
    <path fill="#797f84" transform="rotate(-90 144 144.5)" d="M 144 105 L 144 105 C 145.657 105 147 106.343 147 108 L 147 183 C 147 183.552 146.552 184 146 184 L 144 184 C 142.343 184 141 182.657 141 181 L 141 108 C 141 106.343 142.343 105 144 105 Z"/>
    <ellipse fill="#ae8d68" transform="rotate(-54 193.5 83)" cx="193.5" cy="83" rx="7.5" ry="5"/>
    <g transform="translate(140)">
      <g transform="rotate(-10 109.577 -173.803)">
        <g transform="translate(5 10)">
          <mask id="coder-f" fill="#fff">
            <use xlink:href="#coder-e"/>
          </mask>
          <use fill="#c69f74" xlink:href="#coder-e"/>
          <path fill="#f9fafa" mask="url(&quot;#coder-f&quot;)" d="M 8.85929 67.7781 L 22.1664 61.415 C 23.8104 67.448 22.6718 71.9859 18.7505 75.0286 C 14.8293 78.0714 11.5322 75.6545 8.85929 67.7781 Z"/>
        </g>
        <polygon fill="#6a71a1" fill-rule="nonzero" transform="rotate(8 38.251 51.222)" points="24.546,55.948 24.026,54.017 51.957,46.497 52.477,48.428"/>
        <path fill="#838cc7" d="M 4.9178 42.1063 C 2.40159 41.6626 -1.36455 38.7041 1.2093 34.3444 C 5.55291 26.9869 4.9421 24.1084 6.9421 19.1084 C 10.1959 10.974 25.8977 -3.55395 43.4347 2.18821 C 56.8747 6.5889 63.9537 3.75052 71.4505 11.6851 C 78.9472 19.6197 71.8799 19.389 80.5125 28.0191 C 85.7961 33.3013 85.1487 42.0372 85.0916 48.1197 C 85.0342 54.2414 92.5219 58.5325 92.0179 67.1496 C 91.5822 74.5997 85.8948 79.2398 86.8948 83.2398 C 87.8948 87.2398 89.2688 93.535 83.8166 100.697 C 78.3644 107.859 59.6699 111.671 54.1083 108.659 C 48.5468 105.648 42.1478 98.0688 47.3859 89.1962 C 51.7295 81.8387 45.084 78.6579 44.0818 73.3822 C 43.3738 69.6555 48.7727 64.055 47.4977 59.7685 C 44.3101 49.0522 35.7371 51.6022 34.1504 42.723 C 32.5637 33.8438 17.7203 44.3637 4.9178 42.1063 Z"/>
      </g>
      <path fill="#c69f74" d="M 92 135 C 71.3333 161.667 57.3333 175 50 175 C 44.6927 175 32.8053 170.29 24 164 C 17 159 9.64135 151.681 9 151 C 8.26043 150.214 6 149 4 148 C 0.835562 146.418 -1.74009e-014 142.612 0 142 C 2.83577e-014 141 1 140 3 140 C 5 140 6.24958 140.75 7 141 C 8.63762 141.546 10.314 143.942 14 146 C 15.0506 146.587 17.6691 148.335 19 149 C 25 152 45 162 48 161 C 51 160 84 122 89 125 C 92.3333 127 93.3333 130.333 92 135 Z"/>
      <path fill="#65ccec" d="M 69 139 C 69.6667 141.179 71.3333 143.268 74 145.268 C 76.6667 147.268 79.6667 148.845 83 150 C 89.9457 142.075 93.6124 136.498 94 133.268 C 94.5814 128.423 92.2272 122.418 84 124 C 78.5152 125.055 73.5152 130.055 69 139 Z"/>
    </g>
    <g transform="rotate(-20 278.397 -508.91)">
      <mask id="coder-h" fill="#fff">
        <use xlink:href="#coder-g"/>
      </mask>
      <use fill="#3d3d3d" xlink:href="#coder-g"/>
      <polygon fill="#ae8d68" mask="url(&quot;#coder-h&quot;)" points="-3.27,7.189 11.763,7.189 4.247,18.189"/>
    </g>
    <path fill="#a74a63" transform="rotate(-11 205.374 86.03)" d="M 198.169 89.6924 C 197.247 89.6924 195.605 87.1567 198.703 85.56 C 201.801 83.9634 213.255 81.7101 213.82 82.5474 C 214.61 83.7199 198.169 89.6924 198.169 89.6924 Z"/>
    <path opacity="0.55" fill="#3d3d3d" fill-rule="nonzero" d="M 190.485 64.1213 C 190.418 64.3892 190.147 64.552 189.879 64.4851 C 189.611 64.4181 189.448 64.1466 189.515 63.8787 C 190.232 61.0093 191.742 59.5 194 59.5 C 196.104 59.5 198.199 60.1983 200.277 61.584 C 200.507 61.7372 200.569 62.0476 200.416 62.2774 C 200.263 62.5071 199.952 62.5692 199.723 62.416 C 197.801 61.135 195.896 60.5 194 60.5 C 192.258 60.5 191.101 61.6574 190.485 64.1213 Z"/>
    <path fill="#6a71a1" fill-rule="nonzero" d="M 195 80 C 188.373 80 183 74.6274 183 68 C 183 61.3726 188.373 56 195 56 C 201.627 56 207 61.3726 207 68 C 207 74.6274 201.627 80 195 80 Z M 195 78 C 200.523 78 205 73.5229 205 68 C 205 62.4772 200.523 58 195 58 C 189.477 58 185 62.4772 185 68 C 185 73.5229 189.477 78 195 78 Z"/>
    <rect fill="#5e788b" transform="rotate(22 48.214 201.33)" x="37.214" y="196.331" width="22" height="10" rx="2"/>
    <path fill="#a74a63" d="M 211 82 C 212.333 84.6667 212.667 87.6667 212 91 C 211.391 94.0473 209.945 95.0553 209 96 C 208 97 207 98 208 99 C 208.931 99.9312 211.488 100 213 99 C 215.638 97.2552 215.779 92.1167 215 89 C 214.333 86.3333 213 84 211 82 Z"/>
    <path fill="#c69f74" transform="rotate(-9 148.433 142.58)" d="M 151.578 145.528 C 149.465 141.819 147.751 139.86 146.434 139.651 C 145.502 139.504 145.271 140.319 145.29 140.482 C 145.373 141.232 146.808 142.672 149.596 144.8 L 151.578 145.528 Z"/>
    <path fill="#ae8d68" d="M 159 141 C 156.958 142.333 155.292 143 154 143 C 152.063 143 153 141 154 141 C 155 141 154.265 140.73 156 141 C 156.661 141.103 157.661 141.103 159 141 Z"/>
    <g fill="#f9dc7a" transform="translate(113 90)">
      <path transform="rotate(45 17.238 23.576)" d="M 16.834 26.3975 L 14.276 27.6167 C 13.8722 27.8092 13.3888 27.6379 13.1963 27.2341 C 13.0912 27.0136 13.0912 26.7574 13.1964 26.5369 L 14.4157 23.9802 C 14.5355 23.7289 14.5179 23.4337 14.369 23.1984 L 12.0052 19.4629 C 11.766 19.0849 11.8785 18.5845 12.2565 18.3453 C 12.521 18.178 12.8581 18.1779 13.1226 18.3452 L 16.8597 20.7088 C 17.0949 20.8575 17.39 20.8751 17.6412 20.7554 L 20.1992 19.5361 C 20.603 19.3437 21.0864 19.515 21.2789 19.9188 C 21.384 20.1393 21.384 20.3955 21.2788 20.616 L 20.0595 23.1727 C 19.9397 23.424 19.9573 23.7192 20.1062 23.9545 L 22.47 27.69 C 22.7092 28.068 22.5967 28.5683 22.2187 28.8076 C 21.9542 28.9749 21.6171 28.9749 21.3526 28.8077 L 17.6155 26.4441 C 17.3803 26.2953 17.0852 26.2777 16.834 26.3975 Z"/>
      <rect opacity="0.5" transform="rotate(-45 22.828 2.828)" x="20.828" y="0.828" width="4" height="4" rx="2"/>
      <rect opacity="0.7" transform="rotate(-45 4.243 10.243)" x="1.243" y="7.243" width="6" height="6" rx="1.215"/>
    </g>
  </g>
</svg>